<svg xmlns="http://www.w3.org/2000/svg" width="15.988" height="12.234" viewBox="0 0 15.988 12.234">
  <path id="パス_275" data-name="パス 275" d="M46.364,94.772a.278.278,0,0,0-.013-.065.316.316,0,0,0-.03-.059.29.29,0,0,0-.019-.037s-.01-.007-.014-.012a.354.354,0,0,0-.05-.042.314.314,0,0,0-.049-.034.385.385,0,0,0-.055-.017.3.3,0,0,0-.067-.014.155.155,0,0,0-.017,0H30.707c-.006,0-.012,0-.018,0a.66.66,0,0,0-.121.031.375.375,0,0,0-.047.032.281.281,0,0,0-.052.044s-.01.006-.014.011a.29.29,0,0,0-.019.037.316.316,0,0,0-.03.059.278.278,0,0,0-.013.065.267.267,0,0,0-.008.041V106.4a.322.322,0,0,0,.323.323H46.05a.322.322,0,0,0,.323-.323V94.813A.267.267,0,0,0,46.364,94.772Zm-7.986,5.762-6.751-5.4h13.5Zm-7.349,5.545V95.484l7.147,5.715a.276.276,0,0,0,.045.025.233.233,0,0,0,.033.018.32.32,0,0,0,.123.028h0a.32.32,0,0,0,.123-.028.234.234,0,0,0,.033-.018.342.342,0,0,0,.045-.025l7.147-5.715v10.595Z" transform="translate(-30.384 -94.49)" fill="#464342"/>
</svg>
