<svg xmlns="http://www.w3.org/2000/svg" width="14.455" height="14.473" viewBox="0 0 14.455 14.473">
  <path id="パス_277" data-name="パス 277" d="M96.215,107.173c-.065,0-.129,0-.194,0a5.191,5.191,0,0,1-2.105-.573,18.025,18.025,0,0,1-8.134-8.135,4.55,4.55,0,0,1-.454-3.284,4.054,4.054,0,0,1,1.576-2.2,1.264,1.264,0,0,1,.927-.268,1.166,1.166,0,0,1,.778.453,27.342,27.342,0,0,1,1.835,2.644,1.559,1.559,0,0,1-.33,1.927c-.2.214-.417.415-.639.62l-.112.106a12.182,12.182,0,0,0,2.949,3.434c.329.263.692.506,1.042.741.181.121.362.242.54.367.241-.255.476-.485.713-.713a1.714,1.714,0,0,1,2.2-.257c.811.523,1.535,1.028,2.212,1.543a1.43,1.43,0,0,1,.628,1,1.552,1.552,0,0,1-.48,1.182A3.857,3.857,0,0,1,96.215,107.173Zm-8.53-13.828a.627.627,0,0,0-.384.141,3.454,3.454,0,0,0-1.348,1.852,3.928,3.928,0,0,0,.406,2.832,17.385,17.385,0,0,0,7.848,7.849,4.54,4.54,0,0,0,1.845.5,3.228,3.228,0,0,0,2.635-1.2,1,1,0,0,0,.316-.689.824.824,0,0,0-.375-.547c-.665-.505-1.376-1-2.172-1.515a1.07,1.07,0,0,0-1.4.177c-.243.236-.485.472-.715.72a.547.547,0,0,1-.78.084c-.187-.132-.376-.258-.565-.385-.361-.242-.736-.492-1.086-.772a12.905,12.905,0,0,1-3.235-3.842.323.323,0,0,1,.059-.392l.3-.284c.21-.2.416-.386.607-.589a.958.958,0,0,0,.247-1.153A26.666,26.666,0,0,0,88.1,93.556a.517.517,0,0,0-.347-.207A.56.56,0,0,0,87.684,93.345Z" transform="translate(-85.194 -92.7)" fill="#464342"/>
</svg>
