<svg xmlns="http://www.w3.org/2000/svg" width="264.113" height="36.253" viewBox="0 0 264.113 36.253">
  <g id="グループ_64" data-name="グループ 64" transform="translate(-184.82 -947.878)">
    <g id="グループ_62" data-name="グループ 62">
      <g id="グループ_60" data-name="グループ 60">
        <path id="パス_181" data-name="パス 181" d="M221.076,966.005a18.127,18.127,0,0,0-18-18.127v36.253A18.127,18.127,0,0,0,221.076,966.005Z" fill="#159a4b"/>
      </g>
      <g id="グループ_61" data-name="グループ 61">
        <path id="パス_182" data-name="パス 182" d="M184.82,966.005a18.127,18.127,0,0,0,18,18.126V947.878A18.127,18.127,0,0,0,184.82,966.005Z" fill="#0fafd9"/>
      </g>
    </g>
    <g id="グループ_63" data-name="グループ 63">
      <path id="パス_183" data-name="パス 183" d="M241.123,961.018l-3.836,3.837v-3.837h-1.752v10.036h1.752v-3.709l1-1,3.067,4.712h2.093l-3.893-5.979,4.057-4.056Z" fill="#373433"/>
      <path id="パス_184" data-name="パス 184" d="M256.05,967.225a2.264,2.264,0,0,1-.672,1.635,2.341,2.341,0,0,1-3.279,0,2.266,2.266,0,0,1-.676-1.639v-6.207h-1.752v6.207a4.064,4.064,0,0,0,6.952,2.867h0a3.925,3.925,0,0,0,1.193-2.866v-6.207H256.05Z" fill="#373433"/>
      <path id="パス_185" data-name="パス 185" d="M270.353,968.194l-2.609-7.176h-2.382v10.036h1.752v-6.63l2.416,6.63h1.66l2.4-6.591v6.591h1.752V961.018h-2.382Z" fill="#373433"/>
      <path id="パス_186" data-name="パス 186" d="M285.41,961.018l-3.656,10.036h1.87l.771-2.122h3.665l.784,2.122h1.882l-3.655-10.036Zm2.021,6.149h-2.395l1.2-3.29Z" fill="#373433"/>
      <path id="パス_187" data-name="パス 187" d="M302.794,965.646l-2.952-.607c-1.373-.325-1.373-.988-1.373-1.206a1.075,1.075,0,0,1,.66-.984,3.251,3.251,0,0,1,.657-.229,3.416,3.416,0,0,1,.76-.08,3.02,3.02,0,0,1,1.41.32,1.037,1.037,0,0,1,.667.973v.287h1.752v-.287a2.677,2.677,0,0,0-1.291-2.308,4.515,4.515,0,0,0-2.538-.737,4.466,4.466,0,0,0-2.54.739,2.69,2.69,0,0,0-1.3,2.306,2.586,2.586,0,0,0,1.838,2.621l1.475.3c.495.1.985.2,1.465.3,1.371.313,1.371.954,1.371,1.165a1.077,1.077,0,0,1-.753,1.023,3.656,3.656,0,0,1-1.554.3,3.707,3.707,0,0,1-1.558-.3,1.076,1.076,0,0,1-.762-1.021v-.288h-1.752v.288a2.674,2.674,0,0,0,1.408,2.367,5.322,5.322,0,0,0,5.313.015l.005,0a2.721,2.721,0,0,0,1.418-2.378A2.549,2.549,0,0,0,302.794,965.646Z" fill="#373433"/>
      <path id="パス_188" data-name="パス 188" d="M311.624,971.054h7.2V969.3h-5.446v-2.384h4.257v-1.765h-4.257v-2.371h5.446v-1.765h-7.2Z" fill="#373433"/>
      <path id="パス_189" data-name="パス 189" d="M333.721,971.054h7.2V969.3h-5.447v-2.384h4.257v-1.765h-4.257v-2.371h5.447v-1.765h-7.2Z" fill="#373433"/>
      <path id="パス_190" data-name="パス 190" d="M351.253,964.5l-2.459-3.478h-2.163l3.741,5.312v4.724h1.765V966.33l3.741-5.312H353.7Z" fill="#373433"/>
      <path id="パス_191" data-name="パス 191" d="M362.143,971.054h7.2V969.3h-5.447v-2.384h4.257v-1.765h-4.257v-2.371h5.447v-1.765h-7.2Z" fill="#373433"/>
      <path id="パス_192" data-name="パス 192" d="M389.76,968.533a3.371,3.371,0,0,1-2.462,1,3.5,3.5,0,1,1,2.459-5.982l.2.2,1.266-1.225-.207-.207a5.254,5.254,0,0,0-8.965,3.717,5.175,5.175,0,0,0,1.531,3.718,5.247,5.247,0,0,0,7.434,0l.208-.209-1.265-1.205Z" fill="#373433"/>
      <path id="パス_193" data-name="パス 193" d="M398.777,961.018h-1.751v10.036h6.008V969.3h-4.257Z" fill="#373433"/>
      <rect id="長方形_54" data-name="長方形 54" width="1.751" height="10.036" transform="translate(408.932 961.018)" fill="#373433"/>
      <path id="パス_194" data-name="パス 194" d="M423.921,967.74l-4.767-6.722h-1.612v10.036h1.751v-6.711l4.767,6.711h1.625V961.018h-1.764Z" fill="#373433"/>
      <rect id="長方形_55" data-name="長方形 55" width="1.751" height="10.036" transform="translate(432.259 961.018)" fill="#373433"/>
      <path id="パス_195" data-name="パス 195" d="M447.667,968.339l-.2.194a3.371,3.371,0,0,1-2.462,1,3.5,3.5,0,1,1,2.459-5.982l.2.2,1.266-1.225-.207-.207a5.254,5.254,0,0,0-8.965,3.717,5.175,5.175,0,0,0,1.531,3.718,5.247,5.247,0,0,0,7.434,0l.208-.209Z" fill="#373433"/>
    </g>
  </g>
</svg>
