<svg xmlns="http://www.w3.org/2000/svg" width="140.37" height="186.984" viewBox="0 0 140.37 186.984">
  <g id="Group_336" data-name="Group 336" transform="translate(-169.12 -250.439)">
    <g id="Group_334" data-name="Group 334" transform="translate(169.12 397.249)">
      <path id="Path_448" data-name="Path 448" d="M173.913,580.095l-2.5,2.5v-2.5h-1.141v6.545h1.141V584.22l.654-.654,2,3.073h1.363l-2.538-3.9,2.645-2.645Z" transform="translate(-169.64 -546.624)" fill="#474342"/>
      <path id="Path_449" data-name="Path 449" d="M191.206,584.143a1.475,1.475,0,0,1-.439,1.066,1.527,1.527,0,0,1-2.139,0,1.474,1.474,0,0,1-.441-1.069v-4.048h-1.141v4.048a2.655,2.655,0,0,0,5.311,0v-4.048h-1.15Z" transform="translate(-177.242 -546.625)" fill="#474342"/>
      <path id="Path_450" data-name="Path 450" d="M208.932,584.776l-1.7-4.682h-1.552v6.545h1.141v-4.327l1.577,4.327h1.082l1.568-4.3v4.3h1.141v-6.545h-1.552Z" transform="translate(-185.685 -546.624)" fill="#474342"/>
      <path id="Path_451" data-name="Path 451" d="M227.528,580.095l-2.384,6.545h1.218l.5-1.384h2.391l.511,1.384h1.226l-2.384-6.545Zm1.319,4.011h-1.563l.781-2.148Z" transform="translate(-194.506 -546.625)" fill="#474342"/>
      <path id="Path_452" data-name="Path 452" d="M246.738,582.99l-1.925-.4c-.9-.213-.9-.645-.9-.787a.7.7,0,0,1,.431-.643,2.1,2.1,0,0,1,.429-.149,2.167,2.167,0,0,1,.495-.052,1.97,1.97,0,0,1,.92.209.676.676,0,0,1,.435.635v.188h1.141v-.188a1.747,1.747,0,0,0-.842-1.505,2.943,2.943,0,0,0-1.655-.481,2.914,2.914,0,0,0-1.656.482,1.755,1.755,0,0,0-.849,1.5,1.686,1.686,0,0,0,1.2,1.708l1.917.387c.895.2.895.623.895.761a.7.7,0,0,1-.492.668,2.392,2.392,0,0,1-1.013.193,2.421,2.421,0,0,1-1.016-.195.7.7,0,0,1-.5-.667v-.188h-1.141v.188a1.743,1.743,0,0,0,.918,1.543,3.465,3.465,0,0,0,3.464.009l0,0a1.774,1.774,0,0,0,.925-1.55A1.661,1.661,0,0,0,246.738,582.99Z" transform="translate(-202.423 -546.5)" fill="#474342"/>
      <path id="Path_453" data-name="Path 453" d="M260.6,586.64H265.3V585.5h-3.552v-1.555h2.777v-1.151h-2.777v-1.546H265.3v-1.151H260.6Z" transform="translate(-210.574 -546.624)" fill="#474342"/>
      <path id="Path_454" data-name="Path 454" d="M286.793,586.64h4.693V585.5h-3.552v-1.555h2.777v-1.151h-2.777v-1.546h3.552v-1.151h-4.693Z" transform="translate(-222.441 -546.624)" fill="#474342"/>
      <path id="Path_455" data-name="Path 455" d="M305.122,582.364l-1.6-2.269h-1.41l2.439,3.464v3.081h1.15v-3.081l2.439-3.464h-1.419Z" transform="translate(-229.38 -546.624)" fill="#474342"/>
      <path id="Path_456" data-name="Path 456" d="M320.526,586.64h4.693V585.5h-3.552v-1.555h2.777v-1.151h-2.777v-1.546h3.552v-1.151h-4.693Z" transform="translate(-237.726 -546.624)" fill="#474342"/>
      <path id="Path_457" data-name="Path 457" d="M349.132,584.872a2.2,2.2,0,0,1-1.606.652,2.28,2.28,0,1,1,1.6-3.9l.13.131.825-.8-.135-.135a3.427,3.427,0,0,0-5.847,2.424,3.376,3.376,0,0,0,1,2.425,3.421,3.421,0,0,0,4.847,0l.136-.136-.825-.786Z" transform="translate(-248.41 -546.5)" fill="#474342"/>
      <path id="Path_458" data-name="Path 458" d="M363.024,580.095h-1.142v6.545H365.8V585.5h-2.777Z" transform="translate(-256.465 -546.624)" fill="#474342"/>
      <rect id="Rectangle_337" data-name="Rectangle 337" width="1.141" height="6.545" transform="translate(113.138 33.47)" fill="#474342"/>
      <path id="Path_459" data-name="Path 459" d="M390.347,584.48l-3.109-4.386h-1.051v6.545h1.142v-4.378l3.109,4.378h1.06v-6.545h-1.15Z" transform="translate(-267.478 -546.624)" fill="#474342"/>
      <rect id="Rectangle_338" data-name="Rectangle 338" width="1.142" height="6.545" transform="translate(128.263 33.47)" fill="#474342"/>
      <path id="Path_460" data-name="Path 460" d="M417.549,584.872a2.2,2.2,0,0,1-1.606.652,2.28,2.28,0,1,1,1.6-3.9l.13.131.825-.8-.135-.135a3.427,3.427,0,0,0-5.847,2.424,3.376,3.376,0,0,0,1,2.425,3.421,3.421,0,0,0,4.848,0l.136-.136-.825-.786Z" transform="translate(-279.411 -546.5)" fill="#474342"/>
      <path id="Path_461" data-name="Path 461" d="M172.549,530.725a5.148,5.148,0,0,1-1.192-.74.722.722,0,0,1,0-.1c.031-.072.239-.3,1.293-.993a61.917,61.917,0,0,0,10.147-7.763l.317-.31-1.914-1.264-.206.223a53.245,53.245,0,0,1-9.5,7.458c-1.479.986-2.372,1.581-2.372,2.81,0,1.188,1.127,1.817,1.985,2.3A61.206,61.206,0,0,1,183,540.3l.249.217,1.644-1.609-.3-.254A59.164,59.164,0,0,0,172.549,530.725Z" transform="translate(-169.12 -519.194)" fill="#474342"/>
      <path id="Path_462" data-name="Path 462" d="M229.7,520.641h-2.052v2.65H218.57v1.936h9.081v2.651H218.87v1.936h8.781V532.3a12.733,12.733,0,0,0-2.247-.206c-3.617,0-6.143,1.815-6.143,4.413,0,1.956,1.457,4.045,5.544,4.045,3.25,0,4.9-1.508,4.9-4.483v-1.152a17.2,17.2,0,0,1,5.559,4.116l.306.326,1.352-1.995-.244-.208a21.88,21.88,0,0,0-6.973-4.29v-3.055h7.191v-1.936H229.7v-2.651h7.629v-1.936H229.7Zm-2.052,13.611v1.728c0,1.671-.488,2.639-2.984,2.639-.792,0-3.376-.154-3.376-2.132,0-1.811,2.266-2.454,4.206-2.454A8.584,8.584,0,0,1,227.651,534.252Z" transform="translate(-191.527 -519.685)" fill="#474342"/>
      <path id="Path_463" data-name="Path 463" d="M290.875,539.8l.344-.018-.035-2.057-.375.025c-2.415.16-3.608.23-6.568.23-3.753,0-5.819,0-5.819-3.768v-6.544l8.46-.234c.02,3.252.02,3.676-.024,4.516-.069.946-.324.982-1.4.982a11.316,11.316,0,0,1-2.515-.275l-.625-.112-.143,2,.306.063a13.968,13.968,0,0,0,2.977.307c3.335,0,3.584-1.647,3.584-4.16,0-.011,0-.215-.007-.522-.01-.759-.03-2.157-.037-2.84l4.2-.115-.036-2-4.189.092q0-.94-.01-1.948c-.006-.877-.013-1.8-.013-2.757V520.3H286.8l.006.363c.016,1.01.032,2.237.048,3.457l.017,1.3-8.454.213v-5.107h-2.1V525.7l-3.9.093.036,2.031,3.865-.115v5.993c0,6.28,3.823,6.28,7.871,6.28C287.2,539.987,287.895,539.961,290.875,539.8Z" transform="translate(-215.929 -519.532)" fill="#474342"/>
      <path id="Path_464" data-name="Path 464" d="M346.334,535.843a25.763,25.763,0,0,0,4.227-3.6l.258-.277-1.312-1.084h.389V520.3H338.74v18.725c-.7.177-1,.249-1.609.395l-.027.006V520.3h-7.076v19.844h6.427l.447,1.42.335-.1a80.951,80.951,0,0,0,7.775-2.546l.227-.089v-1.314a14.754,14.754,0,0,0,5.017,3.81l.321.159.894-1.824-.33-.154A12.68,12.68,0,0,1,346.334,535.843Zm-11.143-2.033v4.472h-3.273V533.81Zm0-5.923v4.126h-3.273v-4.126Zm0-5.715v3.918h-3.273v-3.918Zm12.722,4.263v2.6h-7.237v-2.6Zm-7.237-1.821v-2.443h7.237v2.443ZM349.113,531a22.126,22.126,0,0,1-3.74,3.315,14.1,14.1,0,0,1-1.253-3.431h5.1Zm-4.348,6.2c-1.42.493-1.833.616-3.574,1.134l-.515.153v-7.6H342.2a16.44,16.44,0,0,0,2.731,6.253Z" transform="translate(-242.031 -519.532)" fill="#474342"/>
      <path id="Path_465" data-name="Path 465" d="M408.019,536.17l.266.27,1.334-1.478-.24-.24a27.857,27.857,0,0,0-4.125-3.258l-.287-.172-1.066,1.543.3.2A22.666,22.666,0,0,1,408.019,536.17Z" transform="translate(-275.505 -524.51)" fill="#474342"/>
      <path id="Path_466" data-name="Path 466" d="M409.882,525.888l.263.268,1.336-1.445-.234-.243a24.64,24.64,0,0,0-4.1-3.28l-.275-.176-1.15,1.483.32.213A25.265,25.265,0,0,1,409.882,525.888Z" transform="translate(-276.331 -519.853)" fill="#474342"/>
      <path id="Path_467" data-name="Path 467" d="M395.082,531.089a18.66,18.66,0,0,1-3.118-4.3h3.218v-1.82h-3.273v-3.5a15.4,15.4,0,0,0,2.685-.778l.494-.193-1.044-1.6-.27.1a26.091,26.091,0,0,1-7.737,1.313l-.463.009.523,1.869.282-.01a29.619,29.619,0,0,0,3.64-.376v3.165h-4.4v1.82h4.073a19.553,19.553,0,0,1-4.228,7.048l-.206.215,1.216,1.682.36-.4a20.3,20.3,0,0,0,3.186-4.534v10h1.89V530.208a18.524,18.524,0,0,0,1.862,2.494l.3.346,1.214-1.748Z" transform="translate(-267.057 -518.892)" fill="#474342"/>
      <path id="Path_468" data-name="Path 468" d="M410.13,540.865h1.936V533.7l2.681-.541-.3-1.791-2.376.494V519.039H410.13v13.2L401.41,534l.3,1.788,8.415-1.692Z" transform="translate(-274.376 -518.959)" fill="#474342"/>
    </g>
    <g id="Group_335" data-name="Group 335" transform="translate(176.752 250.439)">
      <path id="Path_469" data-name="Path 469" d="M359.324,312.617a62.181,62.181,0,0,0-61.75-62.178V374.795A62.181,62.181,0,0,0,359.324,312.617Z" transform="translate(-234.958 -250.439)" fill="#00a95f"/>
      <path id="Path_470" data-name="Path 470" d="M183.076,312.617a62.18,62.18,0,0,0,61.749,62.178V250.439A62.18,62.18,0,0,0,183.076,312.617Z" transform="translate(-183.076 -250.439)" fill="#26badf"/>
    </g>
  </g>
</svg>
