<svg xmlns="http://www.w3.org/2000/svg" width="25.386" height="32.821" viewBox="0 0 25.386 32.821">
  <g id="Group_218" data-name="Group 218" transform="translate(-328.947 -173.813)">
    <path id="Path_345" data-name="Path 345" d="M341.64,190.644a8.6,8.6,0,0,1-8.6-8.6l-2.485,2.485a3.585,3.585,0,0,0,2.536,6.119h8.552Z" transform="translate(0 1.153)" fill="none" stroke="#00a95f" stroke-miterlimit="10" stroke-width="1"/>
    <path id="Path_346" data-name="Path 346" d="M351.148,184.526l-2.485-2.485a8.6,8.6,0,0,1-8.6,8.6h8.552A3.584,3.584,0,0,0,351.148,184.526Z" transform="translate(1.579 1.153)" fill="none" stroke="#00a95f" stroke-miterlimit="10" stroke-width="1"/>
    <path id="Path_347" data-name="Path 347" d="M335.108,176.74a8.576,8.576,0,0,0-2.531,6.093l6.811-6.093" transform="translate(0.461 0.36)" fill="none" stroke="#00a95f" stroke-miterlimit="10" stroke-width="1"/>
    <path id="Path_348" data-name="Path 348" d="M347.873,182.833a8.576,8.576,0,0,0-2.531-6.093" transform="translate(2.369 0.36)" fill="none" stroke="#00a95f" stroke-miterlimit="10" stroke-width="1"/>
    <path id="Path_349" data-name="Path 349" d="M342.243,176.74" transform="translate(1.906 0.36)" fill="none" stroke="#00a95f" stroke-miterlimit="10" stroke-width="1"/>
    <path id="Path_350" data-name="Path 350" d="M332.577,182.833a8.6,8.6,0,1,0,17.2,0l-6.81-6.093" transform="translate(0.461 0.36)" fill="none" stroke="#00a95f" stroke-miterlimit="10" stroke-width="1"/>
    <path id="Path_351" data-name="Path 351" d="M337.878,177.364" transform="translate(1.253 0.454)" fill="none" stroke="#00a95f" stroke-miterlimit="10" stroke-width="1"/>
    <path id="Path_353" data-name="Path 353" d="M342.086,176.973l-1.792-1.792-1.792,1.792" transform="translate(1.346 0.127)" fill="none" stroke="#00a95f" stroke-miterlimit="10" stroke-width="1"/>
    <path id="Path_354" data-name="Path 354" d="M337.4,189.525a3.585,3.585,0,0,0-3.579,3.584v10.752h14.338V193.109a3.584,3.584,0,0,0-3.578-3.584H337.4Z" transform="translate(0.647 2.272)" fill="none" stroke="#00a95f" stroke-miterlimit="10" stroke-width="1"/>
    <path id="Path_355" data-name="Path 355" d="M340.061,189.525h0Z" transform="translate(1.579 2.272)" fill="none" stroke="#00a95f" stroke-miterlimit="10" stroke-width="1"/>
    <path id="Path_356" data-name="Path 356" d="M336.943,189.525h0Z" transform="translate(1.113 2.272)" fill="none" stroke="#00a95f" stroke-miterlimit="10" stroke-width="1"/>
    <path id="Path_410" data-name="Path 410" d="M334.767,177.384s5.261-6.29,12.207.08" transform="translate(0.788 -0.283)" fill="none" stroke="#00a95f" stroke-width="1"/>
  </g>
</svg>
